<svg xmlns="http://www.w3.org/2000/svg" width="64" height="64" viewBox="0 0 64 64"><defs><clipPath id="a"><path d="M0 0h64v64H0z"/></clipPath></defs><g data-name="Group 8036" clip-path="url(#a)"><path data-name="Path 20960" d="M11.917 52.088l-1.931-8.614 16.746-16.743-6.442-6.442L0 40.574l4.287 19.138 19.138 4.287 3.543-3.543-6.442-6.442z"/><path data-name="Path 20961" d="M40.575 0l-3.543 3.543 6.442 6.442 8.614 1.931 1.927 8.61-16.742 16.746 6.442 6.442L64 23.425 59.713 4.288z"/><path data-name="Path 20967" d="M9.985 20.526l1.931-8.61 8.61-1.931 16.747 16.747 6.442-6.442L23.425.001 4.288 4.288 0 23.425l3.543 3.547z"/><path data-name="Path 20968" d="M54.01 43.473l-1.927 8.614-8.614 1.927-16.742-16.742-6.442 6.442L40.57 63.999l19.14-4.287 4.287-19.138-3.543-3.543z"/><g data-name="Group 7898" fill="#282828"><g data-name="Group 7896"><path data-name="Path 20973" d="M37.272 37.273l6.442 6.442 20.285-20.289z"/><path data-name="Path 20974" d="M43.715 20.29L23.425.001l13.848 26.731z"/><path data-name="Path 20975" d="M20.29 20.289L0 40.574l26.732-13.843z"/><path data-name="Path 20976" d="M20.289 43.714l20.285 20.285-13.843-26.727z"/></g><g data-name="Group 7897"><path data-name="Path 20977" d="M63.999 23.425L59.712 4.287l-16.239 5.7 8.614 1.931z"/><path data-name="Path 20978" d="M9.985 20.526l1.931-8.61L23.425 0 4.287 4.287z"/><path data-name="Path 20979" d="M0 40.574l4.287 19.138 16.239-5.7-8.61-1.927z"/><path data-name="Path 20980" d="M52.088 52.088L40.575 64l19.138-4.287-5.7-16.239z"/></g></g><path data-name="Path 20981" d="M40.575 0l2.9 9.985 16.239-5.7z" fill="#444"/><path data-name="Path 20982" d="M4.288 4.287L0 23.425l9.985-2.9z" fill="#444"/><path data-name="Path 20983" d="M4.288 59.713L23.426 64l-2.9-9.985z" fill="#444"/><path data-name="Path 20984" d="M54.014 43.474l5.7 16.239 4.287-19.138z" fill="#444"/><g data-name="Group 7904"><g data-name="Group 7902"><path data-name="Path 20990" d="M37.272 37.273l26.727-13.847-11.911-11.51 1.927 8.61z"/><path data-name="Path 20991" d="M37.273 26.732L23.425 0 11.916 11.916l8.61-1.931z"/><path data-name="Path 20992" d="M26.732 26.731L0 40.574l11.916 11.513-1.931-8.614z"/><path data-name="Path 20993" d="M26.731 37.272l13.843 26.727 11.513-11.912-8.614 1.927z"/></g><g data-name="Group 7903"><path data-name="Path 20994" d="M37.031 3.543l6.442 6.442L40.573 0z"/><path data-name="Path 20995" d="M3.543 26.968l6.442-6.442L0 23.426z"/><path data-name="Path 20996" d="M23.425 64l3.543-3.543-6.442-6.442z"/><path data-name="Path 20997" d="M60.456 37.032l-6.442 6.442 9.985-2.9z"/></g></g><g data-name="Group 7907" fill="#282828"><g data-name="Group 7905"><path data-name="Path 20998" d="M37.272 37.273l6.442 6.442 20.285-20.289z"/><path data-name="Path 20999" d="M43.715 20.29L23.425.001l13.848 26.731z"/><path data-name="Path 21000" d="M20.29 20.289L0 40.574l26.732-13.843z"/><path data-name="Path 21001" d="M20.289 43.714l20.285 20.285-13.843-26.727z"/></g><g data-name="Group 7906"><path data-name="Path 21002" d="M63.999 23.425L59.712 4.287l-16.239 5.7 8.614 1.931z"/><path data-name="Path 21003" d="M9.985 20.526l1.931-8.61L23.425 0 4.287 4.287z"/><path data-name="Path 21004" d="M0 40.574l4.287 19.138 16.239-5.7-8.61-1.927z"/><path data-name="Path 21005" d="M52.088 52.088L40.575 64l19.138-4.287-5.7-16.239z"/></g></g><g data-name="Group 7908" fill="#444"><path data-name="Path 21006" d="M40.575 0l2.9 9.985 16.239-5.7z"/><path data-name="Path 21007" d="M4.288 4.287L0 23.425l9.985-2.9z"/><path data-name="Path 21008" d="M4.287 59.713L23.425 64l-2.9-9.985z"/><path data-name="Path 21009" d="M54.014 43.473l5.7 16.239 4.287-19.138z"/></g><g data-name="Group 7911"><g data-name="Group 7909"><path data-name="Path 21010" d="M37.272 37.273l26.727-13.847-11.911-11.51 1.927 8.61z"/><path data-name="Path 21011" d="M37.273 26.732L23.425 0 11.916 11.916l8.61-1.931z"/><path data-name="Path 21012" d="M26.732 26.731L0 40.574l11.916 11.513-1.931-8.614z"/><path data-name="Path 21013" d="M26.731 37.272l13.843 26.727 11.513-11.912-8.614 1.927z"/></g><g data-name="Group 7910"><path data-name="Path 21014" d="M37.031 3.543l6.442 6.442L40.573 0z"/><path data-name="Path 21015" d="M3.543 26.968l6.442-6.442L0 23.426z"/><path data-name="Path 21016" d="M23.425 64l3.543-3.543-6.442-6.442z"/><path data-name="Path 21017" d="M60.456 37.032l-6.442 6.442 9.985-2.9z"/></g></g></g></svg>