<svg xmlns="http://www.w3.org/2000/svg" xmlns:xlink="http://www.w3.org/1999/xlink" width="64" height="64" viewBox="0 0 64 64">
  <defs>
    <clipPath id="clip-Favicon">
      <rect width="64" height="64"/>
    </clipPath>
  </defs>
  <g id="Favicon" clip-path="url(#clip-Favicon)">
    <g id="Group_8036" data-name="Group 8036" transform="translate(9961.001 6669)">
      <path id="Path_20960" data-name="Path 20960" d="M103.166,127.057l-1.931-8.614L117.981,101.7l-6.442-6.442L91.249,115.543l4.287,19.138,19.138,4.287,3.543-3.543-6.442-6.442Z" transform="translate(-10052.25 -6743.969)"/>
      <path id="Path_20961" data-name="Path 20961" d="M179.352,48.928l-3.543,3.543,6.442,6.442,8.614,1.931,1.927,8.61L176.05,86.2l6.442,6.442,20.285-20.289L198.49,53.216Z" transform="translate(-10099.778 -6717.928)"/>
      <path id="Path_20967" data-name="Path 20967" d="M101.234,69.454l1.931-8.61,8.61-1.931L128.522,75.66l6.442-6.442-20.29-20.289L95.537,53.216,91.249,72.353,94.792,75.9Z" transform="translate(-10052.25 -6717.928)"/>
      <path id="Path_20968" data-name="Path 20968" d="M171.3,139.93l-1.927,8.614-8.614,1.927-16.742-16.742-6.442,6.442,20.285,20.285L177,156.169l4.287-19.138-3.543-3.543Z" transform="translate(-10078.291 -6765.457)"/>
      <g id="Group_7898" data-name="Group 7898" transform="translate(-9961.001 -6669)">
        <g id="Group_7896" data-name="Group 7896">
          <path id="Path_20973" data-name="Path 20973" d="M176.359,116.266l6.442,6.442,20.285-20.289Z" transform="translate(-139.087 -78.993)" fill="#282828"/>
          <path id="Path_20974" data-name="Path 20974" d="M165.029,69.218l-20.29-20.289L158.587,75.66Z" transform="translate(-121.314 -48.928)" fill="#282828"/>
          <path id="Path_20975" data-name="Path 20975" d="M111.539,95.258,91.249,115.543,117.981,101.7Z" transform="translate(-91.249 -74.969)" fill="#282828"/>
          <path id="Path_20976" data-name="Path 20976" d="M137.579,140.48l20.285,20.285-13.843-26.727Z" transform="translate(-117.29 -96.766)" fill="#282828"/>
        </g>
        <g id="Group_7897" data-name="Group 7897">
          <path id="Path_20977" data-name="Path 20977" d="M211.045,77.856l-4.287-19.138-16.239,5.7,8.614,1.931Z" transform="translate(-147.046 -54.431)" fill="#282828"/>
          <path id="Path_20978" data-name="Path 20978" d="M106.737,69.454l1.931-8.61,11.509-11.916-19.138,4.287Z" transform="translate(-96.752 -48.928)" fill="#282828"/>
          <path id="Path_20979" data-name="Path 20979" d="M91.249,141.578l4.287,19.138,16.239-5.7-8.61-1.927Z" transform="translate(-91.249 -101.004)" fill="#282828"/>
          <path id="Path_20980" data-name="Path 20980" d="M195.413,156.812,183.9,168.724l19.138-4.287-5.7-16.239Z" transform="translate(-143.325 -104.724)" fill="#282828"/>
        </g>
      </g>
      <path id="Path_20981" data-name="Path 20981" d="M183.9,48.928l2.9,9.985,16.239-5.7Z" transform="translate(-10104.326 -6717.928)" fill="#444"/>
      <path id="Path_20982" data-name="Path 20982" d="M95.537,58.718,91.249,77.856l9.985-2.9Z" transform="translate(-10052.25 -6723.431)" fill="#444"/>
      <path id="Path_20983" data-name="Path 20983" d="M101.039,177.966l19.138,4.287-2.9-9.985Z" transform="translate(-10057.752 -6787.253)" fill="#444"/>
      <path id="Path_20984" data-name="Path 20984" d="M214.589,144.477l5.7,16.239,4.287-19.138Z" transform="translate(-10121.576 -6770.003)" fill="#444"/>
      <g id="Group_7904" data-name="Group 7904" transform="translate(-9961.001 -6669)">
        <g id="Group_7902" data-name="Group 7902">
          <path id="Path_20990" data-name="Path 20990" d="M176.359,101.495l26.727-13.847L191.175,76.138l1.927,8.61Z" transform="translate(-139.087 -64.222)"/>
          <path id="Path_20991" data-name="Path 20991" d="M143.816,75.66,129.968,48.928,118.459,60.844l8.61-1.931Z" transform="translate(-106.543 -48.928)"/>
          <path id="Path_20992" data-name="Path 20992" d="M117.981,109.968,91.249,123.811l11.916,11.513-1.931-8.614Z" transform="translate(-91.249 -83.237)"/>
          <path id="Path_20993" data-name="Path 20993" d="M152.289,134.038l13.843,26.727,11.513-11.912-8.614,1.927Z" transform="translate(-125.558 -96.766)"/>
        </g>
        <g id="Group_7903" data-name="Group 7903">
          <path id="Path_20994" data-name="Path 20994" d="M175.809,52.471l6.442,6.442-2.9-9.985Z" transform="translate(-138.778 -48.928)"/>
          <path id="Path_20995" data-name="Path 20995" d="M94.792,102.24l6.442-6.442-9.985,2.9Z" transform="translate(-91.249 -75.272)"/>
          <path id="Path_20996" data-name="Path 20996" d="M141.018,182.253l3.543-3.543-6.442-6.442Z" transform="translate(-117.593 -118.253)"/>
          <path id="Path_20997" data-name="Path 20997" d="M221.031,133.488l-6.442,6.442,9.985-2.9Z" transform="translate(-160.575 -96.456)"/>
        </g>
      </g>
      <g id="Group_7907" data-name="Group 7907" transform="translate(-9961.001 -6669)">
        <g id="Group_7905" data-name="Group 7905">
          <path id="Path_20998" data-name="Path 20998" d="M176.359,116.266l6.442,6.442,20.285-20.289Z" transform="translate(-139.087 -78.993)" fill="#282828"/>
          <path id="Path_20999" data-name="Path 20999" d="M165.029,69.218l-20.29-20.289L158.587,75.66Z" transform="translate(-121.314 -48.928)" fill="#282828"/>
          <path id="Path_21000" data-name="Path 21000" d="M111.539,95.258,91.249,115.543,117.981,101.7Z" transform="translate(-91.249 -74.969)" fill="#282828"/>
          <path id="Path_21001" data-name="Path 21001" d="M137.579,140.48l20.285,20.285-13.843-26.727Z" transform="translate(-117.29 -96.766)" fill="#282828"/>
        </g>
        <g id="Group_7906" data-name="Group 7906">
          <path id="Path_21002" data-name="Path 21002" d="M211.045,77.856l-4.287-19.138-16.239,5.7,8.614,1.931Z" transform="translate(-147.046 -54.431)" fill="#282828"/>
          <path id="Path_21003" data-name="Path 21003" d="M106.737,69.454l1.931-8.61,11.509-11.916-19.138,4.287Z" transform="translate(-96.752 -48.928)" fill="#282828"/>
          <path id="Path_21004" data-name="Path 21004" d="M91.249,141.578l4.287,19.138,16.239-5.7-8.61-1.927Z" transform="translate(-91.249 -101.004)" fill="#282828"/>
          <path id="Path_21005" data-name="Path 21005" d="M195.413,156.812,183.9,168.724l19.138-4.287-5.7-16.239Z" transform="translate(-143.325 -104.724)" fill="#282828"/>
        </g>
      </g>
      <g id="Group_7908" data-name="Group 7908" transform="translate(-9961.001 -6669)">
        <path id="Path_21006" data-name="Path 21006" d="M183.9,48.928l2.9,9.985,16.239-5.7Z" transform="translate(-143.325 -48.928)" fill="#444"/>
        <path id="Path_21007" data-name="Path 21007" d="M95.537,58.718,91.249,77.856l9.985-2.9Z" transform="translate(-91.249 -54.431)" fill="#444"/>
        <path id="Path_21008" data-name="Path 21008" d="M101.039,177.966l19.138,4.287-2.9-9.985Z" transform="translate(-96.752 -118.253)" fill="#444"/>
        <path id="Path_21009" data-name="Path 21009" d="M214.589,144.477l5.7,16.239,4.287-19.138Z" transform="translate(-160.575 -101.004)" fill="#444"/>
      </g>
      <g id="Group_7911" data-name="Group 7911" transform="translate(-9961.001 -6669)">
        <g id="Group_7909" data-name="Group 7909">
          <path id="Path_21010" data-name="Path 21010" d="M176.359,101.495l26.727-13.847L191.175,76.138l1.927,8.61Z" transform="translate(-139.087 -64.222)"/>
          <path id="Path_21011" data-name="Path 21011" d="M143.816,75.66,129.968,48.928,118.459,60.844l8.61-1.931Z" transform="translate(-106.543 -48.928)"/>
          <path id="Path_21012" data-name="Path 21012" d="M117.981,109.968,91.249,123.811l11.916,11.513-1.931-8.614Z" transform="translate(-91.249 -83.237)"/>
          <path id="Path_21013" data-name="Path 21013" d="M152.289,134.038l13.843,26.727,11.513-11.912-8.614,1.927Z" transform="translate(-125.558 -96.766)"/>
        </g>
        <g id="Group_7910" data-name="Group 7910">
          <path id="Path_21014" data-name="Path 21014" d="M175.809,52.471l6.442,6.442-2.9-9.985Z" transform="translate(-138.778 -48.928)"/>
          <path id="Path_21015" data-name="Path 21015" d="M94.792,102.24l6.442-6.442-9.985,2.9Z" transform="translate(-91.249 -75.272)"/>
          <path id="Path_21016" data-name="Path 21016" d="M141.018,182.253l3.543-3.543-6.442-6.442Z" transform="translate(-117.593 -118.253)"/>
          <path id="Path_21017" data-name="Path 21017" d="M221.031,133.488l-6.442,6.442,9.985-2.9Z" transform="translate(-160.575 -96.456)"/>
        </g>
      </g>
    </g>
  </g>
</svg>
